<svg xmlns="http://www.w3.org/2000/svg" viewBox="0 0 75.6 28.08"><defs><style>.cls-1{fill-rule:evenodd;}</style></defs><title>1Mo_logo</title><g id="레이어_2" data-name="레이어 2"><g id="레이어_1-2" data-name="레이어 1"><polygon class="cls-1" points="10.4 0 0 5.45 0 10.85 4.73 8.17 4.73 27.74 10.4 27.74 10.4 0"/><polygon class="cls-1" points="40.73 0 33.51 15.13 26.2 0 18.41 0 18.41 27.74 25.09 27.74 25.09 11.9 33.51 28.08 41.88 11.9 41.88 27.74 48.56 27.74 48.56 0 40.73 0"/><path class="cls-1" d="M75.6,18.25c0,5.43-4.6,9.67-10.44,9.67S54.8,23.8,54.8,18.06s4.29-9.9,10.44-9.9S75.6,12.4,75.6,18.25m-14.72-.19a4.24,4.24,0,0,0,4.33,4.55,4.17,4.17,0,0,0,4.27-4.43c0-2.94-1.6-4.68-4.24-4.68a4.2,4.2,0,0,0-4.36,4.56"/></g></g></svg>